<?xml version="1.0" encoding="UTF-8" standalone="no"?>
<!DOCTYPE svg PUBLIC "-//W3C//DTD SVG 1.0//EN" "http://www.w3.org/TR/2001/PR-SVG-20010719/DTD/svg10.dtd">
<svg width="11cm" height="10cm" viewBox="35 78 215 199" xmlns="http://www.w3.org/2000/svg" xmlns:xlink="http://www.w3.org/1999/xlink">
  <g>
    <rect style="fill: #ffffff" x="36" y="79" width="212" height="197"/>
    <rect style="fill: none; fill-opacity:0; stroke-width: 2; stroke: #000000" x="36" y="79" width="212" height="197"/>
    <text font-size="12.7998" style="fill: #000000;text-anchor:middle;font-family:sans-serif;font-style:normal;font-weight:normal" x="142" y="181.4">
      <tspan x="142" y="181.4"></tspan>
    </text>
  </g>
  <g>
    <rect style="fill: #ffffff" x="68" y="97" width="40" height="38"/>
    <rect style="fill: none; fill-opacity:0; stroke-width: 2; stroke: #000000" x="68" y="97" width="40" height="38"/>
    <text font-size="12.7998" style="fill: #000000;text-anchor:middle;font-family:sans-serif;font-style:normal;font-weight:normal" x="88" y="119.9">
      <tspan x="88" y="119.9"></tspan>
    </text>
  </g>
  <g>
    <ellipse style="fill: #ffffff" cx="88" cy="173" rx="42.7353" ry="21.3677"/>
    <ellipse style="fill: none; fill-opacity:0; stroke-width: 2; stroke: #000000" cx="88" cy="173" rx="42.7353" ry="21.3677"/>
    <text font-size="12.7998" style="fill: #000000;text-anchor:middle;font-family:sans-serif;font-style:normal;font-weight:normal" x="88" y="176.9">
      <tspan x="88" y="176.9"></tspan>
    </text>
  </g>
  <g>
    <polygon style="fill: #ffffff" points="63.5,222 73.5,212 112.5,212 112.5,249 102.5,259 63.5,259 63.5,222 "/>
    <polygon style="fill: none; fill-opacity:0; stroke-width: 2; stroke: #000000" points="63.5,222 73.5,212 112.5,212 112.5,249 102.5,259 63.5,259 63.5,222 "/>
    <line style="fill: none; fill-opacity:0; stroke-width: 2; stroke: #000000" x1="63.5" y1="222" x2="102.5" y2="222"/>
    <line style="fill: none; fill-opacity:0; stroke-width: 2; stroke: #000000" x1="102.5" y1="222" x2="112.5" y2="212"/>
    <line style="fill: none; fill-opacity:0; stroke-width: 2; stroke: #000000" x1="102.5" y1="222" x2="102.5" y2="259"/>
    <text font-size="12.7998" style="fill: #000000;text-anchor:start;font-family:sans-serif;font-style:normal;font-weight:normal" x="73.5" y="243.9">
      <tspan x="73.5" y="243.9"></tspan>
    </text>
    <line style="fill: none; fill-opacity:0; stroke-width: 1; stroke: #000000" x1="73.5" y1="246.9" x2="73.5" y2="246.9"/>
  </g>
  <text font-size="12.7998" style="fill: #000000;text-anchor:start;font-family:sans-serif;font-style:normal;font-weight:normal" x="145.2" y="119">
    <tspan x="145.2" y="119">Datos</tspan>
  </text>
  <text font-size="12.7998" style="fill: #000000;text-anchor:start;font-family:sans-serif;font-style:normal;font-weight:normal" x="145.2" y="177.2">
    <tspan x="145.2" y="177.2">Operaciones</tspan>
  </text>
  <text font-size="12.7998" style="fill: #000000;text-anchor:start;font-family:sans-serif;font-style:normal;font-weight:normal" x="145.2" y="234.2">
    <tspan x="145.2" y="234.2">Nodos</tspan>
  </text>
</svg>
