<?xml version="1.0" encoding="UTF-8" standalone="no"?>
<!DOCTYPE svg PUBLIC "-//W3C//DTD SVG 1.0//EN" "http://www.w3.org/TR/2001/PR-SVG-20010719/DTD/svg10.dtd">
<svg width="14cm" height="16cm" viewBox="5 3 274 311" xmlns="http://www.w3.org/2000/svg" xmlns:xlink="http://www.w3.org/1999/xlink">
  <g>
    <rect style="fill: #ffffff" x="6.07944" y="4.29602" width="271.529" height="308.813"/>
    <rect style="fill: none; fill-opacity:0; stroke-width: 2; stroke: #000000" x="6.07944" y="4.29602" width="271.529" height="308.813"/>
    <text font-size="12.8" style="fill: #000000;text-anchor:middle;font-family:sans-serif;font-style:normal;font-weight:normal" x="141.844" y="162.603">
      <tspan x="141.844" y="162.603"></tspan>
    </text>
  </g>
  <text font-size="12.8" style="fill: #000000;text-anchor:start;font-family:sans-serif;font-style:normal;font-weight:normal" x="42.1966" y="60.9556">
    <tspan x="42.1966" y="60.9556"></tspan>
  </text>
  <g>
    <g>
      <line style="fill: none; fill-opacity:0; stroke-width: 2; stroke: #000000" x1="75.1716" y1="72.0416" x2="127.436" y2="72.0416"/>
      <polygon style="fill: #000000" points="134.936,72.0416 124.936,77.0416 127.436,72.0416 124.936,67.0416 "/>
      <polygon style="fill: none; fill-opacity:0; stroke-width: 2; stroke: #000000" points="134.936,72.0416 124.936,77.0416 127.436,72.0416 124.936,67.0416 "/>
    </g>
    <text font-size="12.8" style="fill: #000000;text-anchor:start;font-family:sans-serif;font-style:normal;font-weight:normal" x="83.1716" y="61.5694">
      <tspan x="83.1716" y="61.5694">50 BTC</tspan>
    </text>
  </g>
  <g>
    <rect style="fill: #ffffff" x="144.497" y="43.9556" width="56.3" height="38"/>
    <rect style="fill: none; fill-opacity:0; stroke-width: 2; stroke: #000000" x="144.497" y="43.9556" width="56.3" height="38"/>
    <text font-size="12.8" style="fill: #000000;text-anchor:middle;font-family:sans-serif;font-style:normal;font-weight:normal" x="172.647" y="66.8556">
      <tspan x="172.647" y="66.8556">Alicia</tspan>
    </text>
  </g>
  <text font-size="12.8" style="fill: #000000;text-anchor:start;font-family:sans-serif;font-style:normal;font-weight:normal" x="44.6176" y="105.183">
    <tspan x="44.6176" y="105.183"></tspan>
  </text>
  <g>
    <g>
      <line style="fill: none; fill-opacity:0; stroke-width: 2; stroke: #000000" x1="74.6058" y1="116.269" x2="126.87" y2="116.269"/>
      <polygon style="fill: #000000" points="134.37,116.269 124.37,121.269 126.87,116.269 124.37,111.269 "/>
      <polygon style="fill: none; fill-opacity:0; stroke-width: 2; stroke: #000000" points="134.37,116.269 124.37,121.269 126.87,116.269 124.37,111.269 "/>
    </g>
    <text font-size="12.8" style="fill: #000000;text-anchor:start;font-family:sans-serif;font-style:normal;font-weight:normal" x="82.6058" y="105.797">
      <tspan x="82.6058" y="105.797">50 BTC</tspan>
    </text>
  </g>
  <g>
    <rect style="fill: #ffffff" x="142.956" y="88.183" width="58.25" height="38"/>
    <rect style="fill: none; fill-opacity:0; stroke-width: 2; stroke: #000000" x="142.956" y="88.183" width="58.25" height="38"/>
    <text font-size="12.8" style="fill: #000000;text-anchor:middle;font-family:sans-serif;font-style:normal;font-weight:normal" x="172.081" y="111.083">
      <tspan x="172.081" y="111.083">Belén</tspan>
    </text>
  </g>
  <text font-size="17.5429" style="fill: #000000;text-anchor:start;font-family:sans-serif;font-style:normal;font-weight:normal" x="32.2424" y="22.4884">
    <tspan x="32.2424" y="22.4884">Registro Contable</tspan>
  </text>
  <line style="fill: none; fill-opacity:0; stroke-width: 2; stroke: #000000" x1="8.20076" y1="32.388" x2="221.04" y2="33.095"/>
  <text font-size="12.8" style="fill: #000000;text-anchor:start;font-family:sans-serif;font-style:normal;font-weight:normal" x="44.3676" y="151.716">
    <tspan x="44.3676" y="151.716"></tspan>
  </text>
  <g>
    <g>
      <line style="fill: none; fill-opacity:0; stroke-width: 2; stroke: #000000" x1="74.6058" y1="162.802" x2="126.87" y2="162.802"/>
      <polygon style="fill: #000000" points="134.37,162.802 124.37,167.802 126.87,162.802 124.37,157.802 "/>
      <polygon style="fill: none; fill-opacity:0; stroke-width: 2; stroke: #000000" points="134.37,162.802 124.37,167.802 126.87,162.802 124.37,157.802 "/>
    </g>
    <text font-size="12.8" style="fill: #000000;text-anchor:start;font-family:sans-serif;font-style:normal;font-weight:normal" x="82.6058" y="152.33">
      <tspan x="82.6058" y="152.33">50 BTC</tspan>
    </text>
  </g>
  <g>
    <rect style="fill: #ffffff" x="142.781" y="134.716" width="58.6" height="38"/>
    <rect style="fill: none; fill-opacity:0; stroke-width: 2; stroke: #000000" x="142.781" y="134.716" width="58.6" height="38"/>
    <text font-size="12.8" style="fill: #000000;text-anchor:middle;font-family:sans-serif;font-style:normal;font-weight:normal" x="172.081" y="157.616">
      <tspan x="172.081" y="157.616">Cesar</tspan>
    </text>
  </g>
  <g>
    <rect style="fill: #ffffff" x="16.1324" y="179.264" width="56.3" height="38"/>
    <rect style="fill: none; fill-opacity:0; stroke-width: 2; stroke: #000000" x="16.1324" y="179.264" width="56.3" height="38"/>
    <text font-size="12.8" style="fill: #000000;text-anchor:middle;font-family:sans-serif;font-style:normal;font-weight:normal" x="44.2824" y="202.164">
      <tspan x="44.2824" y="202.164">Alicia</tspan>
    </text>
  </g>
  <text font-size="12.8" style="fill: #000000;text-anchor:start;font-family:sans-serif;font-style:normal;font-weight:normal" x="44.2824" y="198.264">
    <tspan x="44.2824" y="198.264"></tspan>
  </text>
  <g>
    <line style="fill: none; fill-opacity:0; stroke-width: 2; stroke: #000000" x1="73.7574" y1="207.35" x2="126.021" y2="207.35"/>
    <polygon style="fill: #000000" points="133.521,207.35 123.521,212.35 126.021,207.35 123.521,202.35 "/>
    <polygon style="fill: none; fill-opacity:0; stroke-width: 2; stroke: #000000" points="133.521,207.35 123.521,212.35 126.021,207.35 123.521,202.35 "/>
  </g>
  <text font-size="12.8" style="fill: #000000;text-anchor:start;font-family:sans-serif;font-style:normal;font-weight:normal" x="81.7574" y="196.878">
    <tspan x="81.7574" y="196.878">10 BTC</tspan>
  </text>
  <g>
    <rect style="fill: #ffffff" x="142.107" y="179.264" width="58.25" height="38"/>
    <rect style="fill: none; fill-opacity:0; stroke-width: 2; stroke: #000000" x="142.107" y="179.264" width="58.25" height="38"/>
    <text font-size="12.8" style="fill: #000000;text-anchor:middle;font-family:sans-serif;font-style:normal;font-weight:normal" x="171.232" y="202.164">
      <tspan x="171.232" y="202.164">Belén</tspan>
    </text>
  </g>
  <g>
    <rect style="fill: #ffffff" x="15.5667" y="223.492" width="56.3" height="38"/>
    <rect style="fill: none; fill-opacity:0; stroke-width: 2; stroke: #000000" x="15.5667" y="223.492" width="56.3" height="38"/>
    <text font-size="12.8" style="fill: #000000;text-anchor:middle;font-family:sans-serif;font-style:normal;font-weight:normal" x="43.7167" y="246.392">
      <tspan x="43.7167" y="246.392">Alicia</tspan>
    </text>
  </g>
  <text font-size="12.8" style="fill: #000000;text-anchor:start;font-family:sans-serif;font-style:normal;font-weight:normal" x="43.7167" y="242.492">
    <tspan x="43.7167" y="242.492"></tspan>
  </text>
  <g>
    <line style="fill: none; fill-opacity:0; stroke-width: 2; stroke: #000000" x1="73.1916" y1="251.578" x2="125.456" y2="251.578"/>
    <polygon style="fill: #000000" points="132.956,251.578 122.956,256.578 125.456,251.578 122.956,246.578 "/>
    <polygon style="fill: none; fill-opacity:0; stroke-width: 2; stroke: #000000" points="132.956,251.578 122.956,256.578 125.456,251.578 122.956,246.578 "/>
  </g>
  <text font-size="12.8" style="fill: #000000;text-anchor:start;font-family:sans-serif;font-style:normal;font-weight:normal" x="81.1916" y="241.106">
    <tspan x="81.1916" y="241.106">10 BTC</tspan>
  </text>
  <g>
    <rect style="fill: #ffffff" x="141.367" y="223.492" width="58.6" height="38"/>
    <rect style="fill: none; fill-opacity:0; stroke-width: 2; stroke: #000000" x="141.367" y="223.492" width="58.6" height="38"/>
    <text font-size="12.8" style="fill: #000000;text-anchor:middle;font-family:sans-serif;font-style:normal;font-weight:normal" x="170.667" y="246.392">
      <tspan x="170.667" y="246.392">Cesar</tspan>
    </text>
  </g>
  <g>
    <rect style="fill: #ffffff" x="14.5917" y="270.024" width="58.25" height="38"/>
    <rect style="fill: none; fill-opacity:0; stroke-width: 2; stroke: #000000" x="14.5917" y="270.024" width="58.25" height="38"/>
    <text font-size="12.8" style="fill: #000000;text-anchor:middle;font-family:sans-serif;font-style:normal;font-weight:normal" x="43.7167" y="292.924">
      <tspan x="43.7167" y="292.924">Belén</tspan>
    </text>
  </g>
  <text font-size="12.8" style="fill: #000000;text-anchor:start;font-family:sans-serif;font-style:normal;font-weight:normal" x="43.7167" y="289.024">
    <tspan x="43.7167" y="289.024"></tspan>
  </text>
  <g>
    <line style="fill: none; fill-opacity:0; stroke-width: 2; stroke: #000000" x1="73.1916" y1="298.11" x2="125.456" y2="298.11"/>
    <polygon style="fill: #000000" points="132.956,298.11 122.956,303.11 125.456,298.11 122.956,293.11 "/>
    <polygon style="fill: none; fill-opacity:0; stroke-width: 2; stroke: #000000" points="132.956,298.11 122.956,303.11 125.456,298.11 122.956,293.11 "/>
  </g>
  <text font-size="12.8" style="fill: #000000;text-anchor:start;font-family:sans-serif;font-style:normal;font-weight:normal" x="81.1916" y="287.638">
    <tspan x="81.1916" y="287.638">60 BTC</tspan>
  </text>
  <g>
    <rect style="fill: #ffffff" x="141.367" y="270.024" width="58.6" height="38"/>
    <rect style="fill: none; fill-opacity:0; stroke-width: 2; stroke: #000000" x="141.367" y="270.024" width="58.6" height="38"/>
    <text font-size="12.8" style="fill: #000000;text-anchor:middle;font-family:sans-serif;font-style:normal;font-weight:normal" x="170.667" y="292.924">
      <tspan x="170.667" y="292.924">Cesar</tspan>
    </text>
  </g>
  <g>
    <rect style="fill: #ffffff" x="208.78" y="178.557" width="58.25" height="38"/>
    <rect style="fill: none; fill-opacity:0; stroke-width: 2; stroke: #000000" x="208.78" y="178.557" width="58.25" height="38"/>
    <text font-size="12.8" style="fill: #000000;text-anchor:middle;font-family:Brush Script MT;font-style:italic;font-weight:normal" x="237.905" y="200.957">
      <tspan x="237.905" y="200.957">Alicia</tspan>
    </text>
  </g>
  <g>
    <rect style="fill: #ffffff" x="208.746" y="269.066" width="58.6" height="38"/>
    <rect style="fill: none; fill-opacity:0; stroke-width: 2; stroke: #000000" x="208.746" y="269.066" width="58.6" height="38"/>
    <text font-size="12.8" style="fill: #000000;text-anchor:middle;font-family:SignPainter;font-style:normal;font-weight:normal" x="238.046" y="289.066">
      <tspan x="238.046" y="289.066">Belén</tspan>
    </text>
  </g>
  <g>
    <rect style="fill: #ffffff" x="15.3294" y="44.325" width="57.0658" height="38"/>
    <rect style="fill: none; fill-opacity:0; stroke-width: 2; stroke: #000000" x="15.3294" y="44.325" width="57.0658" height="38"/>
    <text font-size="12.8" style="fill: #000000;text-anchor:middle;font-family:sans-serif;font-style:normal;font-weight:normal" x="43.8623" y="67.225">
      <tspan x="43.8623" y="67.225">*</tspan>
    </text>
  </g>
  <g>
    <rect style="fill: #ffffff" x="15.3294" y="88.5524" width="57.475" height="38"/>
    <rect style="fill: none; fill-opacity:0; stroke-width: 2; stroke: #000000" x="15.3294" y="88.5524" width="57.475" height="38"/>
    <text font-size="12.8" style="fill: #000000;text-anchor:middle;font-family:sans-serif;font-style:normal;font-weight:normal" x="44.0669" y="111.452">
      <tspan x="44.0669" y="111.452">*</tspan>
    </text>
  </g>
  <g>
    <rect style="fill: #ffffff" x="15.8294" y="135.086" width="57.15" height="38"/>
    <rect style="fill: none; fill-opacity:0; stroke-width: 2; stroke: #000000" x="15.8294" y="135.086" width="57.15" height="38"/>
    <text font-size="12.8" style="fill: #000000;text-anchor:middle;font-family:sans-serif;font-style:normal;font-weight:normal" x="44.4044" y="157.986">
      <tspan x="44.4044" y="157.986">*</tspan>
    </text>
  </g>
  <g>
    <rect style="fill: #ffffff" x="207.879" y="222.825" width="58.25" height="38"/>
    <rect style="fill: none; fill-opacity:0; stroke-width: 2; stroke: #000000" x="207.879" y="222.825" width="58.25" height="38"/>
    <text font-size="12.8" style="fill: #000000;text-anchor:middle;font-family:Brush Script MT;font-style:italic;font-weight:normal" x="237.004" y="245.225">
      <tspan x="237.004" y="245.225">Alicia</tspan>
    </text>
  </g>
</svg>
