<?xml version="1.0" encoding="UTF-8" standalone="no"?>
<svg
   xmlns:dc="http://purl.org/dc/elements/1.1/"
   xmlns:cc="http://creativecommons.org/ns#"
   xmlns:rdf="http://www.w3.org/1999/02/22-rdf-syntax-ns#"
   xmlns:svg="http://www.w3.org/2000/svg"
   xmlns="http://www.w3.org/2000/svg"
   xmlns:sodipodi="http://sodipodi.sourceforge.net/DTD/sodipodi-0.dtd"
   xmlns:inkscape="http://www.inkscape.org/namespaces/inkscape"
   viewBox="0 0 799.99996 500.00001"
   id="svg8858"
   version="1.1"
   inkscape:version="0.91 r13725"
   sodipodi:docname="blockchain_logo.svg"
   width="800"
   height="500">
  <metadata
     id="metadata9076">
    <rdf:RDF>
      <cc:Work
         rdf:about="">
        <dc:format>image/svg+xml</dc:format>
        <dc:type
           rdf:resource="http://purl.org/dc/dcmitype/StillImage" />
        <dc:title>Asset 12</dc:title>
      </cc:Work>
    </rdf:RDF>
  </metadata>
  <sodipodi:namedview
     pagecolor="#ffffff"
     bordercolor="#666666"
     borderopacity="1"
     objecttolerance="10"
     gridtolerance="10"
     guidetolerance="10"
     inkscape:pageopacity="1"
     inkscape:pageshadow="2"
     inkscape:window-width="1356"
     inkscape:window-height="683"
     id="namedview9074"
     showgrid="false"
     inkscape:zoom="0.52854936"
     inkscape:cx="-100.40017"
     inkscape:cy="209.56243"
     inkscape:window-x="0"
     inkscape:window-y="0"
     inkscape:window-maximized="0"
     inkscape:current-layer="svg8858" />
  <defs
     id="defs8860">
    <style
       id="style8862">.cls-1,.cls-2{fill:none;stroke:#084b7c;stroke-miterlimit:10;}.cls-1{stroke-width:0.25px;}.cls-3{fill:#084b7c;}</style>
  </defs>
  <title
     id="title8864">Asset 12</title>
  <g
     data-name="Layer 1"
     id="Layer_1-2"
     transform="matrix(2.4034241,0,0,2.3356263,100.27446,14.232841)">
    <line
       style="fill:none;stroke:#084b7c;stroke-width:0.25px;stroke-miterlimit:10"
       id="line8868"
       y2="88.68"
       x2="127.27"
       y1="104.76"
       x1="179.07001"
       class="cls-1" />
    <line
       style="fill:none;stroke:#084b7c;stroke-width:0.25px;stroke-miterlimit:10"
       id="line8870"
       y2="68.620003"
       x2="154.21001"
       y1="75.489998"
       x1="126.17"
       class="cls-1" />
    <polyline
       style="fill:none;stroke:#084b7c;stroke-width:0.25px;stroke-miterlimit:10"
       id="polyline8872"
       points="126.89 77.93 166.99 75.45 158.99 46.8 105.08 13.99 49.64 53.55 98.47 46.92 102.67 67.22"
       class="cls-1" />
    <polyline
       style="fill:none;stroke:#084b7c;stroke-width:0.25px;stroke-miterlimit:10"
       id="polyline8874"
       points="124.39 72.17 158.99 46.8 175.2 31.17 190.9 86.95 166.99 75.45 145.1 94.1 148.45 131.41 123.41 96.03"
       class="cls-1" />
    <line
       style="fill:none;stroke:#084b7c;stroke-width:0.25px;stroke-miterlimit:10"
       id="line8876"
       y2="120.94"
       x2="119.19"
       y1="101.38"
       x1="114.4"
       class="cls-1" />
    <line
       style="fill:none;stroke:#084b7c;stroke-width:0.25px;stroke-miterlimit:10"
       id="line8878"
       y2="110.85"
       x2="62.110001"
       y1="88.82"
       x1="92.389999"
       class="cls-1" />
    <polyline
       style="fill:none;stroke:#084b7c;stroke-width:0.25px;stroke-miterlimit:10"
       id="polyline8880"
       points="103.58 100.93 102.37 149.46 62.11 110.85 64.38 82.4 49.64 53.93"
       class="cls-1" />
    <polyline
       style="fill:none;stroke:#084b7c;stroke-width:0.25px;stroke-miterlimit:10"
       id="polyline8882"
       points="129.64 49.23 158.77 46.97 158.77 35.6"
       class="cls-1" />
    <line
       style="fill:none;stroke:#084b7c;stroke-width:0.25px;stroke-miterlimit:10"
       id="line8884"
       y2="50.209999"
       x2="116.75"
       y1="66.110001"
       x1="110.47"
       class="cls-1" />
    <line
       style="fill:none;stroke:#084b7c;stroke-width:0.25px;stroke-miterlimit:10"
       id="line8886"
       y2="64.709999"
       x2="77.300003"
       y1="74.480003"
       x1="93.629997"
       class="cls-1" />
    <line
       style="fill:none;stroke:#084b7c;stroke-width:0.25px;stroke-miterlimit:10"
       id="line8888"
       y2="117.37"
       x2="88.669998"
       y1="96.75"
       x1="97.129997"
       class="cls-1" />
    <polyline
       style="fill:none;stroke:#084b7c;stroke-width:0.25px;stroke-miterlimit:10"
       id="polyline8890"
       points="108.63 36.05 105.08 13.99 108.63 4.93"
       class="cls-1" />
    <polyline
       style="fill:none;stroke:#084b7c;stroke-width:0.25px;stroke-miterlimit:10"
       id="polyline8892"
       points="33.93 47.41 49.64 53.93 26.82 70.7 0.95 58.16"
       class="cls-1" />
    <line
       style="fill:none;stroke:#084b7c;stroke-width:0.25px;stroke-miterlimit:10"
       id="line8894"
       y2="0.94999999"
       x2="88.669998"
       y1="13.99"
       x1="105.08"
       class="cls-1" />
    <polyline
       style="fill:none;stroke:#084b7c;stroke-width:0.25px;stroke-miterlimit:10"
       id="polyline8896"
       points="169.89 22.09 175.2 31.17 192.74 34.65"
       class="cls-1" />
    <polyline
       style="fill:none;stroke:#084b7c;stroke-width:0.25px;stroke-miterlimit:10"
       id="polyline8898"
       points="49.64 53.93 41.73 99.83 62.11 110.85 56.57 136.2"
       class="cls-1" />
    <polyline
       style="fill:none;stroke:#084b7c;stroke-width:0.25px;stroke-miterlimit:10"
       id="polyline8900"
       points="146.18 170.3 148.45 131.41 102.37 149.46 95.94 163.18"
       class="cls-1" />
    <polyline
       style="fill:none;stroke:#084b7c;stroke-width:0.25px;stroke-miterlimit:10"
       id="polyline8902"
       points="189.64 117.98 227.8 105.54 190.9 86.95 196.92 77.93"
       class="cls-1" />
    <polyline
       style="fill:none;stroke:#084b7c;stroke-width:0.25px;stroke-miterlimit:10"
       id="polyline8904"
       points="168.16 139.32 148.45 131.41 198.18 128.51"
       class="cls-1" />
    <polyline
       style="fill:none;stroke:#084b7c;stroke-width:0.25px;stroke-miterlimit:10"
       id="polyline8906"
       points="128.6 159.62 102.37 149.46 67.5 147.4 56.57 136.2 49.64 134.37"
       class="cls-1" />
    <polyline
       style="fill:none;stroke:#084b7c;stroke-width:0.25px;stroke-miterlimit:10"
       id="polyline8908"
       points="166.99 75.45 225.23 44.7 238.83 56.83"
       class="cls-1" />
    <polyline
       style="fill:none;stroke:#084b7c;stroke-width:0.25px;stroke-miterlimit:10"
       id="polyline8910"
       points="190.28 52.94 184.99 65.95 180.02 64.11"
       class="cls-1" />
    <polyline
       style="fill:none;stroke:#084b7c;stroke-width:0.25px;stroke-miterlimit:10"
       id="polyline8912"
       points="229.93 34.65 225.23 44.7 225.23 50.63"
       class="cls-1" />
    <polyline
       style="fill:none;stroke:#084b7c;stroke-width:0.25px;stroke-miterlimit:10"
       id="polyline8914"
       points="236.31 92.59 227.8 105.54 232.06 120.94"
       class="cls-1" />
    <line
       style="fill:none;stroke:#084b7c;stroke-width:0.25px;stroke-miterlimit:10"
       id="line8916"
       y2="110.85"
       x2="257.79999"
       y1="105.54"
       x1="227.8"
       class="cls-1" />
    <polyline
       style="fill:none;stroke:#084b7c;stroke-width:0.25px;stroke-miterlimit:10"
       id="polyline8918"
       points="223.15 82.4 190.9 86.95 179.07 104.76 198.18 128.51 194.09 143.45"
       class="cls-1" />
    <polyline
       style="fill:none;stroke:#084b7c;stroke-width:0.25px;stroke-miterlimit:10"
       id="polyline8920"
       points="13.42 78.94 26.82 70.7 64.38 82.4"
       class="cls-1" />
    <polyline
       style="fill:none;stroke:#084b7c;stroke-width:0.25px;stroke-miterlimit:10"
       id="polyline8922"
       points="14.82 115.97 41.73 99.83 18.16 94.56"
       class="cls-1" />
    <line
       style="fill:none;stroke:#084b7c;stroke-width:0.25px;stroke-miterlimit:10"
       id="line8924"
       y2="113.12"
       x2="55.689999"
       y1="110.85"
       x1="62.110001"
       class="cls-1" />
    <line
       style="fill:none;stroke:#084b7c;stroke-width:0.25px;stroke-miterlimit:10"
       id="line8926"
       y2="113.12"
       x2="41.73"
       y1="99.830002"
       x1="41.73"
       class="cls-1" />
    <line
       style="fill:none;stroke:#084b7c;stroke-width:0.25px;stroke-miterlimit:10"
       id="line8928"
       y2="156.06"
       x2="45.639999"
       y1="147.39999"
       x1="67.5"
       class="cls-1" />
    <line
       style="fill:none;stroke:#084b7c;stroke-width:0.25px;stroke-miterlimit:10"
       id="line8930"
       y2="70.699997"
       x2="26.82"
       y1="63.240002"
       x1="25.66"
       class="cls-1" />
    <line
       style="fill:none;stroke:#084b7c;stroke-width:0.25px;stroke-miterlimit:10"
       id="line8932"
       y2="128.50999"
       x2="198.17999"
       y1="129.39"
       x1="207.02"
       class="cls-1" />
    <polyline
       style="fill:none;stroke:#084b7c;stroke-width:0.25px;stroke-miterlimit:10"
       id="polyline8934"
       points="45.6 76.55 18.16 94.56 4.74 89.97"
       class="cls-1" />
    <line
       style="fill:none;stroke:#084b7c;stroke-width:0.25px;stroke-miterlimit:10"
       id="line8936"
       y2="94.559998"
       x2="18.16"
       y1="101.24"
       x1="16.219999"
       class="cls-1" />
    <line
       style="fill:none;stroke:#084b7c;stroke-width:0.25px;stroke-miterlimit:10"
       id="line8938"
       y2="122.94"
       x2="155.75"
       y1="131.41"
       x1="148.45"
       class="cls-1" />
    <path
       style="fill:none;stroke:#084b7c;stroke-miterlimit:10"
       inkscape:connector-curvature="0"
       id="path8940"
       d="m 118.59,88.4 c 0,-2.79 -1.79,-4.67 -4.84,-5 a 4.37,4.37 0 0 0 3.85,-4.59 c 0,-2.78 -1.85,-4.52 -5,-4.86 l 0,-2.88 -1.2,0 0,2.78 -3.4,0 0,-2.78 -1.2,0 0,2.78 -3.59,0 0,19.9 3.59,0 0,2.77 1.2,0 0,-2.77 3.34,0 0,2.77 1.2,0 0,-2.81 c 3.86,-0.31 6.05,-2.21 6.05,-5.31 z M 104.44,75 l 6.92,0 c 3.19,0 5,1.42 5,3.9 0,2.48 -1.85,4 -5,4 l -6.92,0 z m 6.92,17.57 -6.92,0 0,-8.57 6.92,0 c 3.85,0 6,1.54 6,4.22 0,2.68 -2.16,4.37 -6,4.37 z"
       class="cls-2" />
    <path
       style="fill:none;stroke:#084b7c;stroke-miterlimit:10"
       inkscape:connector-curvature="0"
       id="path8942"
       d="M 109.8,65.14 A 18.66,18.66 0 1 0 128.46,83.8 18.66,18.66 0 0 0 109.8,65.14 Z m 0,36.2 A 17.54,17.54 0 1 1 127.34,83.8 17.54,17.54 0 0 1 109.8,101.34 Z"
       class="cls-2" />
    <circle
       style="fill:#084b7c"
       id="circle8944"
       r="2.9000001"
       cy="75.370003"
       cx="166.99001"
       class="cls-3" />
    <circle
       style="fill:#084b7c"
       id="circle8946"
       r="2.9000001"
       cy="53.93"
       cx="49.639999"
       class="cls-3" />
    <circle
       style="fill:#084b7c"
       id="circle8948"
       r="1.4"
       cy="104.76"
       cx="179.07001"
       class="cls-3" />
    <circle
       style="fill:#084b7c"
       id="circle8950"
       r="1.4"
       cy="128.50999"
       cx="198.17999"
       class="cls-3" />
    <circle
       style="fill:#084b7c"
       id="circle8952"
       r="1.4"
       cy="111.16"
       cx="257.79999"
       class="cls-3" />
    <circle
       style="fill:#084b7c"
       id="circle8954"
       r="1.4"
       cy="34.650002"
       cx="192.74001"
       class="cls-3" />
    <circle
       style="fill:#084b7c"
       id="circle8956"
       r="1.4"
       cy="34.650002"
       cx="229.92999"
       class="cls-3" />
    <circle
       style="fill:#084b7c"
       id="circle8958"
       r="1.4"
       cy="120.94"
       cx="119.19"
       class="cls-3" />
    <circle
       style="fill:#084b7c"
       id="circle8960"
       r="1.4"
       cy="47.41"
       cx="33.93"
       class="cls-3" />
    <circle
       style="fill:#084b7c"
       id="circle8962"
       r="1.4"
       cy="82.400002"
       cx="64.379997"
       class="cls-3" />
    <circle
       style="fill:#084b7c"
       id="circle8964"
       r="1.4"
       cy="94.559998"
       cx="18.16"
       class="cls-3" />
    <circle
       style="fill:#084b7c"
       id="circle8966"
       r="1.4"
       cy="68.620003"
       cx="154.21001"
       class="cls-3" />
    <circle
       style="fill:#084b7c"
       id="circle8968"
       r="2.5699999"
       cy="105.83"
       cx="227.67999"
       class="cls-3" />
    <circle
       style="fill:#084b7c"
       id="circle8970"
       r="1.4"
       cy="50.209999"
       cx="116.75"
       class="cls-3" />
    <circle
       style="fill:#084b7c"
       id="circle8972"
       r="1.4"
       cy="36.049999"
       cx="108.63"
       class="cls-3" />
    <circle
       style="fill:#084b7c"
       id="circle8974"
       r="1.4"
       cy="4.9299998"
       cx="108.63"
       class="cls-3" />
    <circle
       style="fill:#084b7c"
       id="circle8976"
       r="1.4"
       cy="64.709999"
       cx="77.300003"
       class="cls-3" />
    <circle
       style="fill:#084b7c"
       id="circle8978"
       r="1.4"
       cy="70.699997"
       cx="26.690001"
       class="cls-3" />
    <circle
       style="fill:#084b7c"
       id="circle8980"
       r="1.4"
       cy="99.830002"
       cx="41.73"
       class="cls-3" />
    <circle
       style="fill:#084b7c"
       id="circle8982"
       r="1.4"
       cy="115.97"
       cx="14.82"
       class="cls-3" />
    <circle
       style="fill:#084b7c"
       id="circle8984"
       r="1.2"
       cy="156.06"
       cx="45.639999"
       class="cls-3" />
    <circle
       style="fill:#084b7c"
       id="circle8986"
       r="1.2"
       cy="136.2"
       cx="56.57"
       class="cls-3" />
    <circle
       style="fill:#084b7c"
       id="circle8988"
       r="1.2"
       cy="78.940002"
       cx="13.42"
       class="cls-3" />
    <circle
       style="fill:#084b7c"
       id="circle8990"
       r="1.2"
       cy="63.240002"
       cx="25.66"
       class="cls-3" />
    <circle
       style="fill:#084b7c"
       id="circle8992"
       r="0.72000003"
       cy="113.12"
       cx="55.689999"
       class="cls-3" />
    <circle
       style="fill:#084b7c"
       id="circle8994"
       r="0.72000003"
       cy="101.13"
       cx="16.219999"
       class="cls-3" />
    <circle
       style="fill:#084b7c"
       id="circle8996"
       r="1.4"
       cy="163.17999"
       cx="95.940002"
       class="cls-3" />
    <circle
       style="fill:#084b7c"
       id="circle8998"
       r="1.4"
       cy="159.69"
       cx="128.87"
       class="cls-3" />
    <circle
       style="fill:#084b7c"
       id="circle9000"
       r="1.4"
       cy="170.3"
       cx="146.13"
       class="cls-3" />
    <circle
       style="fill:#084b7c"
       id="circle9002"
       r="1.4"
       cy="139.32001"
       cx="168.16"
       class="cls-3" />
    <circle
       style="fill:#084b7c"
       id="circle9004"
       r="1.4"
       cy="117.37"
       cx="88.669998"
       class="cls-3" />
    <circle
       style="fill:#084b7c"
       id="circle9006"
       r="1.4"
       cy="147.39999"
       cx="67.379997"
       class="cls-3" />
    <circle
       style="fill:#084b7c"
       id="circle9008"
       r="1.4"
       cy="49.23"
       cx="129.64"
       class="cls-3" />
    <circle
       style="fill:#084b7c"
       id="circle9010"
       r="1.4"
       cy="56.830002"
       cx="238.83"
       class="cls-3" />
    <circle
       style="fill:#084b7c"
       id="circle9012"
       r="1.4"
       cy="82.400002"
       cx="223.14999"
       class="cls-3" />
    <circle
       style="fill:#084b7c"
       id="circle9014"
       r="0.94999999"
       cy="36.049999"
       cx="158.81"
       class="cls-3" />
    <circle
       style="fill:#084b7c"
       id="circle9016"
       r="0.94999999"
       cy="113.12"
       cx="41.790001"
       class="cls-3" />
    <circle
       style="fill:#084b7c"
       id="circle9018"
       r="0.94999999"
       cy="134.37"
       cx="49.639999"
       class="cls-3" />
    <circle
       style="fill:#084b7c"
       id="circle9020"
       r="0.94999999"
       cy="90.029999"
       cx="4.7399998"
       class="cls-3" />
    <circle
       style="fill:#084b7c"
       id="circle9022"
       r="0.94999999"
       cy="58.16"
       cx="0.94999999"
       class="cls-3" />
    <circle
       style="fill:#084b7c"
       id="circle9024"
       r="0.94999999"
       cy="22.09"
       cx="169.89"
       class="cls-3" />
    <circle
       style="fill:#084b7c"
       id="circle9026"
       r="0.94999999"
       cy="50.630001"
       cx="225.23"
       class="cls-3" />
    <circle
       style="fill:#084b7c"
       id="circle9028"
       r="0.94999999"
       cy="92.589996"
       cx="236.31"
       class="cls-3" />
    <circle
       style="fill:#084b7c"
       id="circle9030"
       r="0.94999999"
       cy="129.39"
       cx="207.02"
       class="cls-3" />
    <circle
       style="fill:#084b7c"
       id="circle9032"
       r="0.94999999"
       cy="122.94"
       cx="155.75"
       class="cls-3" />
    <circle
       style="fill:#084b7c"
       id="circle9034"
       r="1.25"
       cy="120.94"
       cx="232.06"
       class="cls-3" />
    <circle
       style="fill:#084b7c"
       id="circle9036"
       r="1.25"
       cy="143.45"
       cx="194.11"
       class="cls-3" />
    <circle
       style="fill:#084b7c"
       id="circle9038"
       r="1.25"
       cy="52.939999"
       cx="190.28"
       class="cls-3" />
    <circle
       style="fill:#084b7c"
       id="circle9040"
       r="0.94999999"
       cy="64.190002"
       cx="180.02"
       class="cls-3" />
    <circle
       style="fill:#084b7c"
       id="circle9042"
       r="0.94999999"
       cy="78.269997"
       cx="196.57001"
       class="cls-3" />
    <circle
       style="fill:#084b7c"
       id="circle9044"
       r="0.94999999"
       cy="0.94999999"
       cx="88.669998"
       class="cls-3" />
    <circle
       style="fill:#084b7c"
       id="circle9046"
       r="1.85"
       cy="131.24001"
       cx="148.47"
       class="cls-3" />
    <circle
       style="fill:#084b7c"
       id="circle9048"
       r="1.85"
       cy="149.24001"
       cx="102.07"
       class="cls-3" />
    <circle
       style="fill:#084b7c"
       id="circle9050"
       r="1.85"
       cy="86.949997"
       cx="190.89999"
       class="cls-3" />
    <circle
       style="fill:#084b7c"
       id="circle9052"
       r="1.85"
       cy="117.84"
       cx="189.67999"
       class="cls-3" />
    <circle
       style="fill:#084b7c"
       id="circle9054"
       r="1.85"
       cy="14.23"
       cx="105.1"
       class="cls-3" />
    <circle
       style="fill:#084b7c"
       id="circle9056"
       r="1.85"
       cy="46.970001"
       cx="98.550003"
       class="cls-3" />
    <circle
       style="fill:#084b7c"
       id="circle9058"
       r="1.85"
       cy="65.809998"
       cx="184.99001"
       class="cls-3" />
    <circle
       style="fill:#084b7c"
       id="circle9060"
       r="1.85"
       cy="76.860001"
       cx="45.639999"
       class="cls-3" />
    <circle
       style="fill:#084b7c"
       id="circle9062"
       r="1.85"
       cy="31.17"
       cx="175.21001"
       class="cls-3" />
    <circle
       style="fill:#084b7c"
       id="circle9064"
       r="1.85"
       cy="45.119999"
       cx="225.23"
       class="cls-3" />
    <circle
       style="fill:#084b7c"
       id="circle9066"
       r="2.26"
       cy="94.559998"
       cx="145.34"
       class="cls-3" />
    <circle
       style="fill:#084b7c"
       id="circle9068"
       r="2.26"
       cy="110.85"
       cx="62.110001"
       class="cls-3" />
    <circle
       style="fill:#084b7c"
       id="circle9070"
       r="2.26"
       cy="46.970001"
       cx="158.81"
       class="cls-3" />
    <path
       style="fill:none;stroke:#084b7c;stroke-miterlimit:10"
       inkscape:connector-curvature="0"
       id="path9072"
       d="M 33.38,47"
       class="cls-2" />
  </g>
</svg>
