<?xml version="1.0" encoding="UTF-8" standalone="no"?>
<svg
   xmlns:dc="http://purl.org/dc/elements/1.1/"
   xmlns:cc="http://creativecommons.org/ns#"
   xmlns:rdf="http://www.w3.org/1999/02/22-rdf-syntax-ns#"
   xmlns:svg="http://www.w3.org/2000/svg"
   xmlns="http://www.w3.org/2000/svg"
   xmlns:xlink="http://www.w3.org/1999/xlink"
   xmlns:sodipodi="http://sodipodi.sourceforge.net/DTD/sodipodi-0.dtd"
   xmlns:inkscape="http://www.inkscape.org/namespaces/inkscape"
   width="102"
   height="271"
   id="svg7689"
   version="1.1"
   inkscape:version="0.91 r13725"
   sodipodi:docname="Blockchain_chain.svg">
  <metadata
     id="metadata7723">
    <rdf:RDF>
      <cc:Work
         rdf:about="">
        <dc:format>image/svg+xml</dc:format>
        <dc:type
           rdf:resource="http://purl.org/dc/dcmitype/StillImage" />
      </cc:Work>
    </rdf:RDF>
  </metadata>
  <defs
     id="defs7721" />
  <sodipodi:namedview
     pagecolor="#ffffff"
     bordercolor="#666666"
     borderopacity="1"
     objecttolerance="10"
     gridtolerance="10"
     guidetolerance="10"
     inkscape:pageopacity="0"
     inkscape:pageshadow="2"
     inkscape:window-width="1415"
     inkscape:window-height="783"
     id="namedview7719"
     showgrid="false"
     inkscape:zoom="1.7416974"
     inkscape:cx="-24.289222"
     inkscape:cy="149.37669"
     inkscape:window-x="0"
     inkscape:window-y="0"
     inkscape:window-maximized="0"
     inkscape:current-layer="svg7689" />
  <rect
     style="fill:#ffffff;stroke:#000000;stroke-width:2.2915566;stroke-opacity:0"
     id="rect8566"
     width="100.90759"
     height="266.26352"
     x="1.2199302"
     y="2.3682368"
     ry="0" />
  <rect
     width="20"
     height="20"
     x="26"
     y="6"
     id="r" />
  <use
     y="30"
     xlink:href="#r"
     id="use7692" />
  <use
     y="60"
     xlink:href="#r"
     id="use7694" />
  <use
     x="20"
     y="90"
     xlink:href="#r"
     id="use7696" />
  <use
     x="20"
     y="120"
     xlink:href="#r"
     id="use7698" />
  <use
     x="20"
     y="150"
     xlink:href="#r"
     id="use7700" />
  <use
     x="20"
     y="180"
     xlink:href="#r"
     id="use7702" />
  <use
     y="210"
     xlink:href="#r"
     id="use7704" />
  <rect
     width="19"
     height="19"
     x="66.5"
     y="66.5"
     fill="#9865c3"
     stroke="#000"
     id="t" />
  <use
     y="-30"
     xlink:href="#t"
     id="use7707" />
  <use
     x="10"
     y="30"
     xlink:href="#t"
     id="use7709" />
  <use
     x="10"
     y="60"
     xlink:href="#t"
     id="use7711" />
  <use
     x="-60"
     y="120"
     xlink:href="#t"
     id="use7713" />
  <rect
     width="19"
     height="19"
     x="26.5"
     y="246.5"
     fill="#448e73"
     stroke="#000"
     id="rect7715" />
  <path
     d="m 66,136 10,0 m -40,100 0,10 m 20,-70 0,10 m 0,-40 0,10 m 30,-40 0,10 m -30,-10 0,10 M 76,56 76,66 M 36,56 36,66 m 0,-40 0,10 M 14.813189,205.34165 37.464028,217.91519 M 57.070035,205.22195 36.077544,217.0773 M 34.788331,85.490793 57.43917,98.064333 m 19.606007,-12.69324 -20.992491,11.85535"
     fill="none"
     stroke="#000"
     id="path7717" />
  <rect
     style="fill:#ffffff;fill-rule:evenodd;stroke:#000000;stroke-width:1px;stroke-linecap:butt;stroke-linejoin:miter;stroke-opacity:0"
     id="rect7762"
     width="75.213982"
     height="133.77754"
     x="-140.09322"
     y="31.57839" />
</svg>
