<?xml version="1.0" encoding="UTF-8" standalone="no"?>
<!DOCTYPE svg PUBLIC "-//W3C//DTD SVG 1.0//EN" "http://www.w3.org/TR/2001/PR-SVG-20010719/DTD/svg10.dtd">
<svg width="22cm" height="27cm" viewBox="-209 -265 423 539" xmlns="http://www.w3.org/2000/svg" xmlns:xlink="http://www.w3.org/1999/xlink">
  <g>
    <rect style="fill: #ffffff" x="-207.231" y="-263.209" width="420" height="536.035"/>
    <rect style="fill: none; fill-opacity:0; stroke-width: 2; stroke: #000000" x="-207.231" y="-263.209" width="420" height="536.035"/>
    <text font-size="5.64444" style="fill: #0000ff;text-anchor:start;font-family:sans-serif;font-style:normal;font-weight:normal" x="-202.231" y="6.53026">
      <tspan x="-202.231" y="6.53026"></tspan>
    </text>
  </g>
  <g>
    <rect style="fill: #ffffff" x="-200.064" y="-19.95" width="405" height="92"/>
    <rect style="fill: none; fill-opacity:0; stroke-width: 2; stroke: #000000" x="-200.064" y="-19.95" width="405" height="92"/>
    <text font-size="5.64444" style="fill: #0000ff;text-anchor:start;font-family:sans-serif;font-style:normal;font-weight:normal" x="-195.064" y="27.7722">
      <tspan x="-195.064" y="27.7722"></tspan>
    </text>
  </g>
  <g>
    <rect style="fill: #ffffff" x="-130.065" y="-0.3" width="195" height="42.85"/>
    <rect style="fill: none; fill-opacity:0; stroke-width: 2; stroke: #000000" x="-130.065" y="-0.3" width="195" height="42.85"/>
    <text font-size="5.64444" style="fill: #0000ff;text-anchor:start;font-family:sans-serif;font-style:normal;font-weight:normal" x="-125.065" y="22.8472">
      <tspan x="-125.065" y="22.8472"></tspan>
    </text>
  </g>
  <g>
    <rect style="fill: #d7ef7d" x="-124.815" y="15.7278" width="60.75" height="22.7"/>
    <rect style="fill: none; fill-opacity:0; stroke-width: 2; stroke: #000000" x="-124.815" y="15.7278" width="60.75" height="22.7"/>
    <text font-size="10.16" style="fill: #000000;text-anchor:middle;font-family:sans-serif;font-style:normal;font-weight:normal" x="-94.4396" y="30.1278">
      <tspan x="-94.4396" y="30.1278">Hash T0</tspan>
    </text>
  </g>
  <g>
    <rect style="fill: #ffffff" x="68.9354" y="-0.3" width="132" height="67.85"/>
    <rect style="fill: none; fill-opacity:0; stroke-width: 2; stroke: #000000" x="68.9354" y="-0.3" width="132" height="67.85"/>
    <text font-size="5.64444" style="fill: #0000ff;text-anchor:start;font-family:sans-serif;font-style:normal;font-weight:normal" x="73.9354" y="35.3472">
      <tspan x="73.9354" y="35.3472"></tspan>
    </text>
  </g>
  <g>
    <rect style="fill: #ffc0cb" x="73.9354" y="14.7" width="52.9" height="22.7"/>
    <rect style="fill: none; fill-opacity:0; stroke-width: 2; stroke: #000000" x="73.9354" y="14.7" width="52.9" height="22.7"/>
    <text font-size="10.16" style="fill: #000000;text-anchor:middle;font-family:sans-serif;font-style:normal;font-weight:normal" x="100.385" y="29.1">
      <tspan x="100.385" y="29.1">10 BTC</tspan>
    </text>
  </g>
  <g>
    <rect style="fill: #ffffff" x="131.31" y="14.7" width="65.125" height="22.7"/>
    <rect style="fill: none; fill-opacity:0; stroke-width: 2; stroke: #000000" x="131.31" y="14.7" width="65.125" height="22.7"/>
    <text font-size="10.16" style="fill: #000000;text-anchor:middle;font-family:sans-serif;font-style:normal;font-weight:normal" x="163.873" y="29.1">
      <tspan x="163.873" y="29.1">Dir. Belén</tspan>
    </text>
  </g>
  <text font-size="10.16" style="fill: #000000;text-anchor:start;font-family:sans-serif;font-style:normal;font-weight:normal" x="75.9354" y="10.55">
    <tspan x="75.9354" y="10.55">Out</tspan>
  </text>
  <g>
    <rect style="fill: #ffffff" x="-1.03967" y="15.2" width="60.05" height="22.7"/>
    <rect style="fill: none; fill-opacity:0; stroke-width: 2; stroke: #000000" x="-1.03967" y="15.2" width="60.05" height="22.7"/>
    <text font-size="10.16" style="fill: #000000;text-anchor:middle;font-family:sans-serif;font-style:normal;font-weight:normal" x="28.9853" y="29.6">
      <tspan x="28.9853" y="29.6">FirmaT0I0</tspan>
    </text>
  </g>
  <text font-size="10.16" style="fill: #000000;text-anchor:start;font-family:sans-serif;font-style:normal;font-weight:normal" x="-124.465" y="10.55">
    <tspan x="-124.465" y="10.55">In</tspan>
  </text>
  <g>
    <rect style="fill: #d7ef7d" x="-60.3146" y="15.7" width="55.65" height="22.7"/>
    <rect style="fill: none; fill-opacity:0; stroke-width: 2; stroke: #000000" x="-60.3146" y="15.7" width="55.65" height="22.7"/>
    <text font-size="10.16" style="fill: #000000;text-anchor:middle;font-family:sans-serif;font-style:normal;font-weight:normal" x="-32.4896" y="30.1">
      <tspan x="-32.4896" y="30.1">Index O0</tspan>
    </text>
  </g>
  <g>
    <rect style="fill: #ffffff" x="-194.965" y="15.7" width="60.75" height="22.7"/>
    <rect style="fill: none; fill-opacity:0; stroke-width: 2; stroke: #000000" x="-194.965" y="15.7" width="60.75" height="22.7"/>
    <text font-size="10.16" style="fill: #000000;text-anchor:middle;font-family:sans-serif;font-style:normal;font-weight:normal" x="-164.59" y="30.1">
      <tspan x="-164.59" y="30.1">Hash T3</tspan>
    </text>
  </g>
  <g>
    <rect style="fill: #c7c7fb" x="74.0354" y="41.2" width="52.9" height="22.7"/>
    <rect style="fill: none; fill-opacity:0; stroke-width: 2; stroke: #000000" x="74.0354" y="41.2" width="52.9" height="22.7"/>
    <text font-size="10.16" style="fill: #000000;text-anchor:middle;font-family:sans-serif;font-style:normal;font-weight:normal" x="100.485" y="55.6">
      <tspan x="100.485" y="55.6">40 BTC</tspan>
    </text>
  </g>
  <g>
    <rect style="fill: #ffffff" x="131.41" y="41.2" width="65.125" height="22.7"/>
    <rect style="fill: none; fill-opacity:0; stroke-width: 2; stroke: #000000" x="131.41" y="41.2" width="65.125" height="22.7"/>
    <text font-size="10.16" style="fill: #000000;text-anchor:middle;font-family:sans-serif;font-style:normal;font-weight:normal" x="163.973" y="55.6">
      <tspan x="163.973" y="55.6">Dir. Alicia</tspan>
    </text>
  </g>
  <text font-size="10.16" style="fill: #000000;text-anchor:start;font-family:sans-serif;font-style:normal;font-weight:normal" x="-194.965" y="-6.4">
    <tspan x="-194.965" y="-6.4">T3 "Alicia paga 10 BTC a Belén"</tspan>
  </text>
  <g>
    <rect style="fill: #ffffff" x="-199.865" y="76.1" width="405" height="92"/>
    <rect style="fill: none; fill-opacity:0; stroke-width: 2; stroke: #000000" x="-199.865" y="76.1" width="405" height="92"/>
    <text font-size="5.64444" style="fill: #0000ff;text-anchor:start;font-family:sans-serif;font-style:normal;font-weight:normal" x="-194.865" y="123.822">
      <tspan x="-194.865" y="123.822"></tspan>
    </text>
  </g>
  <g>
    <rect style="fill: #ffffff" x="-129.865" y="95.75" width="195" height="42.85"/>
    <rect style="fill: none; fill-opacity:0; stroke-width: 2; stroke: #000000" x="-129.865" y="95.75" width="195" height="42.85"/>
    <text font-size="5.64444" style="fill: #0000ff;text-anchor:start;font-family:sans-serif;font-style:normal;font-weight:normal" x="-124.865" y="118.897">
      <tspan x="-124.865" y="118.897"></tspan>
    </text>
  </g>
  <g>
    <rect style="fill: #c7c7fb" x="-124.615" y="111.778" width="60.75" height="22.7"/>
    <rect style="fill: none; fill-opacity:0; stroke-width: 2; stroke: #000000" x="-124.615" y="111.778" width="60.75" height="22.7"/>
    <text font-size="10.16" style="fill: #000000;text-anchor:middle;font-family:sans-serif;font-style:normal;font-weight:normal" x="-94.2396" y="126.178">
      <tspan x="-94.2396" y="126.178">Hash T3</tspan>
    </text>
  </g>
  <g>
    <rect style="fill: #ffffff" x="69.1354" y="95.75" width="132" height="67.85"/>
    <rect style="fill: none; fill-opacity:0; stroke-width: 2; stroke: #000000" x="69.1354" y="95.75" width="132" height="67.85"/>
    <text font-size="5.64444" style="fill: #0000ff;text-anchor:start;font-family:sans-serif;font-style:normal;font-weight:normal" x="74.1354" y="131.397">
      <tspan x="74.1354" y="131.397"></tspan>
    </text>
  </g>
  <g>
    <rect style="fill: #ffffff" x="74.1354" y="110.75" width="52.9" height="22.7"/>
    <rect style="fill: none; fill-opacity:0; stroke-width: 2; stroke: #000000" x="74.1354" y="110.75" width="52.9" height="22.7"/>
    <text font-size="10.16" style="fill: #000000;text-anchor:middle;font-family:sans-serif;font-style:normal;font-weight:normal" x="100.585" y="125.15">
      <tspan x="100.585" y="125.15">10 BTC</tspan>
    </text>
  </g>
  <g>
    <rect style="fill: #ffffff" x="131.51" y="110.75" width="65.125" height="22.7"/>
    <rect style="fill: none; fill-opacity:0; stroke-width: 2; stroke: #000000" x="131.51" y="110.75" width="65.125" height="22.7"/>
    <text font-size="10.16" style="fill: #000000;text-anchor:middle;font-family:sans-serif;font-style:normal;font-weight:normal" x="164.073" y="125.15">
      <tspan x="164.073" y="125.15">Dir. Cesar</tspan>
    </text>
  </g>
  <text font-size="10.16" style="fill: #000000;text-anchor:start;font-family:sans-serif;font-style:normal;font-weight:normal" x="76.1354" y="106.6">
    <tspan x="76.1354" y="106.6">Out</tspan>
  </text>
  <g>
    <rect style="fill: #ffffff" x="-0.839674" y="111.25" width="60.05" height="22.7"/>
    <rect style="fill: none; fill-opacity:0; stroke-width: 2; stroke: #000000" x="-0.839674" y="111.25" width="60.05" height="22.7"/>
    <text font-size="10.16" style="fill: #000000;text-anchor:middle;font-family:sans-serif;font-style:normal;font-weight:normal" x="29.1853" y="125.65">
      <tspan x="29.1853" y="125.65">FirmaT3I1</tspan>
    </text>
  </g>
  <text font-size="10.16" style="fill: #000000;text-anchor:start;font-family:sans-serif;font-style:normal;font-weight:normal" x="-124.265" y="106.6">
    <tspan x="-124.265" y="106.6">In</tspan>
  </text>
  <g>
    <rect style="fill: #c7c7fb" x="-60.1146" y="111.75" width="55.65" height="22.7"/>
    <rect style="fill: none; fill-opacity:0; stroke-width: 2; stroke: #000000" x="-60.1146" y="111.75" width="55.65" height="22.7"/>
    <text font-size="10.16" style="fill: #000000;text-anchor:middle;font-family:sans-serif;font-style:normal;font-weight:normal" x="-32.2896" y="126.15">
      <tspan x="-32.2896" y="126.15">Index O1</tspan>
    </text>
  </g>
  <g>
    <rect style="fill: #ffffff" x="-194.765" y="111.75" width="60.75" height="22.7"/>
    <rect style="fill: none; fill-opacity:0; stroke-width: 2; stroke: #000000" x="-194.765" y="111.75" width="60.75" height="22.7"/>
    <text font-size="10.16" style="fill: #000000;text-anchor:middle;font-family:sans-serif;font-style:normal;font-weight:normal" x="-164.39" y="126.15">
      <tspan x="-164.39" y="126.15">Hash T4</tspan>
    </text>
  </g>
  <g>
    <rect style="fill: #ffffff" x="74.2354" y="137.25" width="52.9" height="22.7"/>
    <rect style="fill: none; fill-opacity:0; stroke-width: 2; stroke: #000000" x="74.2354" y="137.25" width="52.9" height="22.7"/>
    <text font-size="10.16" style="fill: #000000;text-anchor:middle;font-family:sans-serif;font-style:normal;font-weight:normal" x="100.685" y="151.65">
      <tspan x="100.685" y="151.65">30 BTC</tspan>
    </text>
  </g>
  <g>
    <rect style="fill: #ffffff" x="131.61" y="137.25" width="65.125" height="22.7"/>
    <rect style="fill: none; fill-opacity:0; stroke-width: 2; stroke: #000000" x="131.61" y="137.25" width="65.125" height="22.7"/>
    <text font-size="10.16" style="fill: #000000;text-anchor:middle;font-family:sans-serif;font-style:normal;font-weight:normal" x="164.173" y="151.65">
      <tspan x="164.173" y="151.65">Dir. Alicia</tspan>
    </text>
  </g>
  <text font-size="10.16" style="fill: #000000;text-anchor:start;font-family:sans-serif;font-style:normal;font-weight:normal" x="-194.765" y="89.65">
    <tspan x="-194.765" y="89.65">T4 "Alicia paga 10 BTC a Cesar"</tspan>
  </text>
  <g>
    <rect style="fill: #ffffff" x="-199.965" y="172.7" width="405" height="92"/>
    <rect style="fill: none; fill-opacity:0; stroke-width: 2; stroke: #000000" x="-199.965" y="172.7" width="405" height="92"/>
    <text font-size="5.64444" style="fill: #0000ff;text-anchor:start;font-family:sans-serif;font-style:normal;font-weight:normal" x="-194.965" y="220.422">
      <tspan x="-194.965" y="220.422"></tspan>
    </text>
  </g>
  <g>
    <rect style="fill: #ffffff" x="-129.965" y="192.35" width="195" height="67.8502"/>
    <rect style="fill: none; fill-opacity:0; stroke-width: 2; stroke: #000000" x="-129.965" y="192.35" width="195" height="67.8502"/>
    <text font-size="5.64444" style="fill: #0000ff;text-anchor:start;font-family:sans-serif;font-style:normal;font-weight:normal" x="-124.965" y="227.997">
      <tspan x="-124.965" y="227.997"></tspan>
    </text>
  </g>
  <g>
    <rect style="fill: #d8e5e5" x="-124.715" y="208.378" width="60.75" height="22.7"/>
    <rect style="fill: none; fill-opacity:0; stroke-width: 2; stroke: #000000" x="-124.715" y="208.378" width="60.75" height="22.7"/>
    <text font-size="10.16" style="fill: #000000;text-anchor:middle;font-family:sans-serif;font-style:normal;font-weight:normal" x="-94.3396" y="222.778">
      <tspan x="-94.3396" y="222.778">Hash T1</tspan>
    </text>
  </g>
  <g>
    <rect style="fill: #ffffff" x="69.0354" y="192.35" width="132" height="67.85"/>
    <rect style="fill: none; fill-opacity:0; stroke-width: 2; stroke: #000000" x="69.0354" y="192.35" width="132" height="67.85"/>
    <text font-size="5.64444" style="fill: #0000ff;text-anchor:start;font-family:sans-serif;font-style:normal;font-weight:normal" x="74.0354" y="227.997">
      <tspan x="74.0354" y="227.997"></tspan>
    </text>
  </g>
  <g>
    <rect style="fill: #ffffff" x="74.0354" y="207.35" width="52.9" height="22.7"/>
    <rect style="fill: none; fill-opacity:0; stroke-width: 2; stroke: #000000" x="74.0354" y="207.35" width="52.9" height="22.7"/>
    <text font-size="10.16" style="fill: #000000;text-anchor:middle;font-family:sans-serif;font-style:normal;font-weight:normal" x="100.485" y="221.75">
      <tspan x="100.485" y="221.75">60 BTC</tspan>
    </text>
  </g>
  <g>
    <rect style="fill: #ffffff" x="131.41" y="207.35" width="65.125" height="22.7"/>
    <rect style="fill: none; fill-opacity:0; stroke-width: 2; stroke: #000000" x="131.41" y="207.35" width="65.125" height="22.7"/>
    <text font-size="10.16" style="fill: #000000;text-anchor:middle;font-family:sans-serif;font-style:normal;font-weight:normal" x="163.973" y="221.75">
      <tspan x="163.973" y="221.75">Dir. Cesar</tspan>
    </text>
  </g>
  <text font-size="10.16" style="fill: #000000;text-anchor:start;font-family:sans-serif;font-style:normal;font-weight:normal" x="76.0354" y="203.2">
    <tspan x="76.0354" y="203.2">Out</tspan>
  </text>
  <g>
    <rect style="fill: #ffffff" x="-0.939674" y="207.85" width="60.05" height="22.7"/>
    <rect style="fill: none; fill-opacity:0; stroke-width: 2; stroke: #000000" x="-0.939674" y="207.85" width="60.05" height="22.7"/>
    <text font-size="10.16" style="fill: #000000;text-anchor:middle;font-family:sans-serif;font-style:normal;font-weight:normal" x="29.0853" y="222.25">
      <tspan x="29.0853" y="222.25">FirmaT1I0</tspan>
    </text>
  </g>
  <text font-size="10.16" style="fill: #000000;text-anchor:start;font-family:sans-serif;font-style:normal;font-weight:normal" x="-124.365" y="203.2">
    <tspan x="-124.365" y="203.2">In</tspan>
  </text>
  <g>
    <rect style="fill: #d8e5e5" x="-60.2146" y="208.35" width="55.65" height="22.7"/>
    <rect style="fill: none; fill-opacity:0; stroke-width: 2; stroke: #000000" x="-60.2146" y="208.35" width="55.65" height="22.7"/>
    <text font-size="10.16" style="fill: #000000;text-anchor:middle;font-family:sans-serif;font-style:normal;font-weight:normal" x="-32.3896" y="222.75">
      <tspan x="-32.3896" y="222.75">Index O0</tspan>
    </text>
  </g>
  <g>
    <rect style="fill: #ffffff" x="-194.865" y="208.35" width="60.75" height="22.7"/>
    <rect style="fill: none; fill-opacity:0; stroke-width: 2; stroke: #000000" x="-194.865" y="208.35" width="60.75" height="22.7"/>
    <text font-size="10.16" style="fill: #000000;text-anchor:middle;font-family:sans-serif;font-style:normal;font-weight:normal" x="-164.49" y="222.75">
      <tspan x="-164.49" y="222.75">Hash T5</tspan>
    </text>
  </g>
  <text font-size="10.16" style="fill: #000000;text-anchor:start;font-family:sans-serif;font-style:normal;font-weight:normal" x="-194.865" y="186.25">
    <tspan x="-194.865" y="186.25">T5 "Belén paga 60 BTC a Cesar"</tspan>
  </text>
  <g>
    <rect style="fill: #ffffff" x="-199.865" y="-90.525" width="405" height="66.8769"/>
    <rect style="fill: none; fill-opacity:0; stroke-width: 2; stroke: #000000" x="-199.865" y="-90.525" width="405" height="66.8769"/>
    <text font-size="5.64444" style="fill: #0000ff;text-anchor:start;font-family:sans-serif;font-style:normal;font-weight:normal" x="-194.865" y="-55.3643">
      <tspan x="-194.865" y="-55.3643"></tspan>
    </text>
  </g>
  <g>
    <rect style="fill: #ffffff" x="-129.865" y="-70.875" width="195" height="42.85"/>
    <rect style="fill: none; fill-opacity:0; stroke-width: 2; stroke: #000000" x="-129.865" y="-70.875" width="195" height="42.85"/>
    <text font-size="5.64444" style="fill: #0000ff;text-anchor:start;font-family:sans-serif;font-style:normal;font-weight:normal" x="-124.865" y="-47.7278">
      <tspan x="-124.865" y="-47.7278"></tspan>
    </text>
  </g>
  <g>
    <rect style="fill: #ffffff" x="69.1354" y="-70.875" width="132" height="43.2269"/>
    <rect style="fill: none; fill-opacity:0; stroke-width: 2; stroke: #000000" x="69.1354" y="-70.875" width="132" height="43.2269"/>
    <text font-size="5.64444" style="fill: #0000ff;text-anchor:start;font-family:sans-serif;font-style:normal;font-weight:normal" x="74.1354" y="-47.5393">
      <tspan x="74.1354" y="-47.5393"></tspan>
    </text>
  </g>
  <g>
    <rect style="fill: #ffffff" x="74.1354" y="-55.875" width="52.9" height="22.7"/>
    <rect style="fill: none; fill-opacity:0; stroke-width: 2; stroke: #000000" x="74.1354" y="-55.875" width="52.9" height="22.7"/>
    <text font-size="10.16" style="fill: #000000;text-anchor:middle;font-family:sans-serif;font-style:normal;font-weight:normal" x="100.585" y="-41.475">
      <tspan x="100.585" y="-41.475">50 BTC</tspan>
    </text>
  </g>
  <g>
    <rect style="fill: #ffffff" x="131.51" y="-55.875" width="65.125" height="22.7"/>
    <rect style="fill: none; fill-opacity:0; stroke-width: 2; stroke: #000000" x="131.51" y="-55.875" width="65.125" height="22.7"/>
    <text font-size="10.16" style="fill: #000000;text-anchor:middle;font-family:sans-serif;font-style:normal;font-weight:normal" x="164.073" y="-41.475">
      <tspan x="164.073" y="-41.475">Dir. Cesar</tspan>
    </text>
  </g>
  <text font-size="10.16" style="fill: #000000;text-anchor:start;font-family:sans-serif;font-style:normal;font-weight:normal" x="76.1354" y="-60.025">
    <tspan x="76.1354" y="-60.025">Out</tspan>
  </text>
  <text font-size="10.16" style="fill: #000000;text-anchor:start;font-family:sans-serif;font-style:normal;font-weight:normal" x="-124.265" y="-60.025">
    <tspan x="-124.265" y="-60.025">In</tspan>
  </text>
  <g>
    <rect style="fill: #ffffff" x="-194.765" y="-54.875" width="60.75" height="22.7"/>
    <rect style="fill: none; fill-opacity:0; stroke-width: 2; stroke: #000000" x="-194.765" y="-54.875" width="60.75" height="22.7"/>
    <text font-size="10.16" style="fill: #000000;text-anchor:middle;font-family:sans-serif;font-style:normal;font-weight:normal" x="-164.39" y="-40.475">
      <tspan x="-164.39" y="-40.475">Hash T2</tspan>
    </text>
  </g>
  <text font-size="10.16" style="fill: #000000;text-anchor:start;font-family:sans-serif;font-style:normal;font-weight:normal" x="-194.765" y="-76.975">
    <tspan x="-194.765" y="-76.975">T2 "El sistema paga 50 BTC a Cesar"</tspan>
  </text>
  <g>
    <rect style="fill: #ffffff" x="-199.465" y="-160.998" width="405" height="66.8769"/>
    <rect style="fill: none; fill-opacity:0; stroke-width: 2; stroke: #000000" x="-199.465" y="-160.998" width="405" height="66.8769"/>
    <text font-size="5.64444" style="fill: #0000ff;text-anchor:start;font-family:sans-serif;font-style:normal;font-weight:normal" x="-194.465" y="-125.837">
      <tspan x="-194.465" y="-125.837"></tspan>
    </text>
  </g>
  <g>
    <rect style="fill: #ffffff" x="-129.465" y="-141.348" width="195" height="42.85"/>
    <rect style="fill: none; fill-opacity:0; stroke-width: 2; stroke: #000000" x="-129.465" y="-141.348" width="195" height="42.85"/>
    <text font-size="5.64444" style="fill: #0000ff;text-anchor:start;font-family:sans-serif;font-style:normal;font-weight:normal" x="-124.465" y="-118.201">
      <tspan x="-124.465" y="-118.201"></tspan>
    </text>
  </g>
  <g>
    <rect style="fill: #ffffff" x="69.5354" y="-141.348" width="132" height="43.2269"/>
    <rect style="fill: none; fill-opacity:0; stroke-width: 2; stroke: #000000" x="69.5354" y="-141.348" width="132" height="43.2269"/>
    <text font-size="5.64444" style="fill: #0000ff;text-anchor:start;font-family:sans-serif;font-style:normal;font-weight:normal" x="74.5354" y="-118.012">
      <tspan x="74.5354" y="-118.012"></tspan>
    </text>
  </g>
  <g>
    <rect style="fill: #d8e5e5" x="74.5354" y="-126.348" width="52.9" height="22.7"/>
    <rect style="fill: none; fill-opacity:0; stroke-width: 2; stroke: #000000" x="74.5354" y="-126.348" width="52.9" height="22.7"/>
    <text font-size="10.16" style="fill: #000000;text-anchor:middle;font-family:sans-serif;font-style:normal;font-weight:normal" x="100.985" y="-111.948">
      <tspan x="100.985" y="-111.948">50 BTC</tspan>
    </text>
  </g>
  <g>
    <rect style="fill: #ffffff" x="131.91" y="-126.348" width="65.125" height="22.7"/>
    <rect style="fill: none; fill-opacity:0; stroke-width: 2; stroke: #000000" x="131.91" y="-126.348" width="65.125" height="22.7"/>
    <text font-size="10.16" style="fill: #000000;text-anchor:middle;font-family:sans-serif;font-style:normal;font-weight:normal" x="164.473" y="-111.948">
      <tspan x="164.473" y="-111.948">Dir. Belén</tspan>
    </text>
  </g>
  <text font-size="10.16" style="fill: #000000;text-anchor:start;font-family:sans-serif;font-style:normal;font-weight:normal" x="76.5354" y="-130.498">
    <tspan x="76.5354" y="-130.498">Out</tspan>
  </text>
  <text font-size="10.16" style="fill: #000000;text-anchor:start;font-family:sans-serif;font-style:normal;font-weight:normal" x="-123.865" y="-130.498">
    <tspan x="-123.865" y="-130.498">In</tspan>
  </text>
  <g>
    <rect style="fill: #ffffff" x="-194.365" y="-125.348" width="60.75" height="22.7"/>
    <rect style="fill: none; fill-opacity:0; stroke-width: 2; stroke: #000000" x="-194.365" y="-125.348" width="60.75" height="22.7"/>
    <text font-size="10.16" style="fill: #000000;text-anchor:middle;font-family:sans-serif;font-style:normal;font-weight:normal" x="-163.99" y="-110.948">
      <tspan x="-163.99" y="-110.948">Hash T1</tspan>
    </text>
  </g>
  <text font-size="10.16" style="fill: #000000;text-anchor:start;font-family:sans-serif;font-style:normal;font-weight:normal" x="-194.365" y="-147.448">
    <tspan x="-194.365" y="-147.448">T1 "El sistema paga 50 BTC a Belén"</tspan>
  </text>
  <g>
    <rect style="fill: #ffffff" x="-198.865" y="-231.563" width="405" height="66.8769"/>
    <rect style="fill: none; fill-opacity:0; stroke-width: 2; stroke: #000000" x="-198.865" y="-231.563" width="405" height="66.8769"/>
    <text font-size="5.64444" style="fill: #0000ff;text-anchor:start;font-family:sans-serif;font-style:normal;font-weight:normal" x="-193.865" y="-196.402">
      <tspan x="-193.865" y="-196.402"></tspan>
    </text>
  </g>
  <g>
    <rect style="fill: #ffffff" x="-128.865" y="-211.913" width="195" height="42.85"/>
    <rect style="fill: none; fill-opacity:0; stroke-width: 2; stroke: #000000" x="-128.865" y="-211.913" width="195" height="42.85"/>
    <text font-size="5.64444" style="fill: #0000ff;text-anchor:start;font-family:sans-serif;font-style:normal;font-weight:normal" x="-123.865" y="-188.765">
      <tspan x="-123.865" y="-188.765"></tspan>
    </text>
  </g>
  <g>
    <rect style="fill: #ffffff" x="70.1354" y="-211.913" width="132" height="43.2269"/>
    <rect style="fill: none; fill-opacity:0; stroke-width: 2; stroke: #000000" x="70.1354" y="-211.913" width="132" height="43.2269"/>
    <text font-size="5.64444" style="fill: #0000ff;text-anchor:start;font-family:sans-serif;font-style:normal;font-weight:normal" x="75.1354" y="-188.577">
      <tspan x="75.1354" y="-188.577"></tspan>
    </text>
  </g>
  <g>
    <rect style="fill: #d7ef7d" x="75.1354" y="-196.913" width="52.9" height="22.7"/>
    <rect style="fill: none; fill-opacity:0; stroke-width: 2; stroke: #000000" x="75.1354" y="-196.913" width="52.9" height="22.7"/>
    <text font-size="10.16" style="fill: #000000;text-anchor:middle;font-family:sans-serif;font-style:normal;font-weight:normal" x="101.585" y="-182.513">
      <tspan x="101.585" y="-182.513">50 BTC</tspan>
    </text>
  </g>
  <g>
    <rect style="fill: #ffffff" x="132.51" y="-196.913" width="65.125" height="22.7"/>
    <rect style="fill: none; fill-opacity:0; stroke-width: 2; stroke: #000000" x="132.51" y="-196.913" width="65.125" height="22.7"/>
    <text font-size="10.16" style="fill: #000000;text-anchor:middle;font-family:sans-serif;font-style:normal;font-weight:normal" x="165.073" y="-182.513">
      <tspan x="165.073" y="-182.513">Dir. Alicia</tspan>
    </text>
  </g>
  <text font-size="10.16" style="fill: #000000;text-anchor:start;font-family:sans-serif;font-style:normal;font-weight:normal" x="77.1354" y="-201.063">
    <tspan x="77.1354" y="-201.063">Out</tspan>
  </text>
  <text font-size="10.16" style="fill: #000000;text-anchor:start;font-family:sans-serif;font-style:normal;font-weight:normal" x="-123.265" y="-201.063">
    <tspan x="-123.265" y="-201.063">In</tspan>
  </text>
  <g>
    <rect style="fill: #ffffff" x="-193.765" y="-195.913" width="60.75" height="22.7"/>
    <rect style="fill: none; fill-opacity:0; stroke-width: 2; stroke: #000000" x="-193.765" y="-195.913" width="60.75" height="22.7"/>
    <text font-size="10.16" style="fill: #000000;text-anchor:middle;font-family:sans-serif;font-style:normal;font-weight:normal" x="-163.39" y="-181.513">
      <tspan x="-163.39" y="-181.513">Hash T0</tspan>
    </text>
  </g>
  <text font-size="10.16" style="fill: #000000;text-anchor:start;font-family:sans-serif;font-style:normal;font-weight:normal" x="-193.765" y="-218.013">
    <tspan x="-193.765" y="-218.013">T0 "El sistema paga 50 BTC a Alicia"</tspan>
  </text>
  <g>
    <rect style="fill: #ffc0cb" x="-125.465" y="234.378" width="60.75" height="22.7"/>
    <rect style="fill: none; fill-opacity:0; stroke-width: 2; stroke: #000000" x="-125.465" y="234.378" width="60.75" height="22.7"/>
    <text font-size="10.16" style="fill: #000000;text-anchor:middle;font-family:sans-serif;font-style:normal;font-weight:normal" x="-95.0896" y="248.778">
      <tspan x="-95.0896" y="248.778">Hash T3</tspan>
    </text>
  </g>
  <g>
    <rect style="fill: #ffffff" x="-1.68967" y="233.85" width="60.05" height="22.7"/>
    <rect style="fill: none; fill-opacity:0; stroke-width: 2; stroke: #000000" x="-1.68967" y="233.85" width="60.05" height="22.7"/>
    <text font-size="10.16" style="fill: #000000;text-anchor:middle;font-family:sans-serif;font-style:normal;font-weight:normal" x="28.3353" y="248.25">
      <tspan x="28.3353" y="248.25">FirmaT3I0</tspan>
    </text>
  </g>
  <g>
    <rect style="fill: #ffc0cb" x="-60.9646" y="234.35" width="55.65" height="22.7"/>
    <rect style="fill: none; fill-opacity:0; stroke-width: 2; stroke: #000000" x="-60.9646" y="234.35" width="55.65" height="22.7"/>
    <text font-size="10.16" style="fill: #000000;text-anchor:middle;font-family:sans-serif;font-style:normal;font-weight:normal" x="-33.1396" y="248.75">
      <tspan x="-33.1396" y="248.75">Index O0</tspan>
    </text>
  </g>
  <text font-size="12.8" style="fill: #000000;text-anchor:start;font-family:sans-serif;font-style:normal;font-weight:normal" x="-56.0646" y="-242.643">
    <tspan x="-56.0646" y="-242.643">Registro Contable</tspan>
  </text>
</svg>
